<svg xmlns="http://www.w3.org/2000/svg" xmlns:svg="http://www.w3.org/2000/svg" id="svg8" width="100" height="100" version="1.1" viewBox="0 0 26.458 26.458"><metadata id="metadata5"/><g id="layer1" transform="translate(0,-270.54165)"><g id="g4664" style="stroke:#fff;stroke-width:1.85208333;stroke-miterlimit:4;stroke-dasharray:none;stroke-opacity:1" transform="translate(0,-0.2199022)"><rect style="fill:none;fill-opacity:1;stroke:#fff;stroke-width:1.85208333;stroke-linecap:round;stroke-linejoin:round;stroke-miterlimit:4;stroke-dasharray:none;stroke-opacity:1" id="rect4655" width="19.738" height="16.803" x="3.34" y="278.329" ry="2.376"/><path style="fill:none;fill-opacity:1;stroke:#fff;stroke-width:1.85208333;stroke-linecap:round;stroke-linejoin:round;stroke-miterlimit:4;stroke-dasharray:none;stroke-opacity:1" id="path4657" d="m 3.3423799,285.77471 c -1.38e-5,-0.96946 4.4174231,-1.75536 9.8666111,-1.75536 5.449189,0 9.866626,0.7859 9.866612,1.75536 v 8.62533 c -1.4e-5,0.96946 -4.417442,1.75535 -9.866612,1.75535 -5.4491688,0 -9.8665975,-0.78589 -9.8666111,-1.75535 z"/><path style="fill:none;fill-opacity:1;stroke:#fff;stroke-width:1.85208333;stroke-linecap:round;stroke-linejoin:round;stroke-miterlimit:4;stroke-dasharray:none;stroke-opacity:1" id="path4659" d="m 3.2742296,277.25943 c 0,0.96947 4.4479448,1.75536 9.9347624,1.75536 5.486818,0 9.934762,-0.78589 9.934762,-1.75536 v -3.69808 c 0,-0.96947 -4.447944,-1.75538 -9.934762,-1.75538 -5.4868176,0 -9.9347625,0.78591 -9.9347624,1.75538 z"/></g><rect style="fill:none;fill-opacity:1;stroke:#000;stroke-width:1.21708333;stroke-linecap:round;stroke-linejoin:round;stroke-miterlimit:4;stroke-dasharray:none;stroke-opacity:1" id="rect819" width="19.738" height="16.803" x="3.34" y="278.109" rx="2.776" ry="2.776"/><path style="fill:#eac10a;fill-opacity:1;stroke:#000;stroke-width:1.21708333;stroke-linecap:round;stroke-linejoin:round;stroke-miterlimit:4;stroke-dasharray:none;stroke-opacity:1" id="path817" d="m 3.3423799,285.55481 c -1.38e-5,-0.96946 4.4174231,-1.75536 9.8666111,-1.75536 5.449189,0 9.866626,0.7859 9.866612,1.75536 v 8.62533 c -1.4e-5,0.96946 -4.417442,1.75535 -9.866612,1.75535 -5.4491688,0 -9.8665975,-0.78589 -9.8666111,-1.75535 z"/><path style="fill:#fff;fill-opacity:1;stroke:none;stroke-width:1.14518094;stroke-linecap:round;stroke-linejoin:round;stroke-miterlimit:4;stroke-dasharray:none;stroke-opacity:1" id="path4609" d="m 22.480374,281.35972 c 0,-0.91966 -4.151139,-1.66519 -9.271828,-1.66519 -5.1206892,0 -9.2718282,0.74553 -9.2718282,1.66519 v 9.88513 c 0,0.91967 0,-1.21753 9.3809082,-1.21753 9.380909,0 9.162748,2.1372 9.162748,1.21753 z"/><path id="path4611" d="m 22.480374,282.11367 c 0,-0.91966 -4.151139,-1.66519 -9.271828,-1.66519 -5.1206892,0 -9.2718282,0.74553 -9.2718282,1.66519 v 8.37723 c 0,0.91967 0,-1.21753 9.3809082,-1.21753 9.380909,0 9.162748,2.1372 9.162748,1.21753 z" style="fill:#eac10a;fill-opacity:1;stroke:none;stroke-width:1.14518094;stroke-linecap:round;stroke-linejoin:round;stroke-miterlimit:4;stroke-dasharray:none;stroke-opacity:1"/><path id="path4575" d="m 3.9371487,291.40974 c 0,0.91966 4.151139,1.66519 9.2718283,1.66519 5.120689,0 9.271828,-0.74553 9.271828,-1.66519 v -9.88513 c 0,-0.91967 0,1.21753 -9.380908,1.21753 -9.3809089,0 -9.1627484,-2.1372 -9.1627483,-1.21753 z" style="fill:#0981e9;fill-opacity:1;stroke:none;stroke-width:1.14518094;stroke-linecap:round;stroke-linejoin:round;stroke-miterlimit:4;stroke-dasharray:none;stroke-opacity:1"/><path style="fill:#0981e9;fill-opacity:1;stroke:#000;stroke-width:1.21708333;stroke-linecap:round;stroke-linejoin:round;stroke-miterlimit:4;stroke-dasharray:none;stroke-opacity:1" id="ellipse853" d="m 3.2742296,277.03953 c 0,0.96947 4.4479448,1.75536 9.9347624,1.75536 5.486818,0 9.934762,-0.78589 9.934762,-1.75536 v -3.69808 c 0,-0.96947 -4.447944,-1.75538 -9.934762,-1.75538 -5.4868176,0 -9.9347625,0.78591 -9.9347624,1.75538 z"/><ellipse id="ellipse4579" style="fill:#4fa9f8;fill-opacity:1;stroke:none;stroke-width:1.21708333;stroke-linecap:round;stroke-linejoin:round;stroke-miterlimit:4;stroke-dasharray:none;stroke-opacity:1" cx="13.209" cy="273.508" rx="9.323" ry="1.386"/><text xml:space="preserve" style="font-style:normal;font-variant:normal;font-weight:400;font-stretch:normal;font-size:4.93888903px;line-height:1.25;font-family:'Arial Rounded MT Bold';-inkscape-font-specification:'Arial Rounded MT Bold, Normal';font-variant-ligatures:normal;font-variant-caps:normal;font-variant-numeric:normal;font-feature-settings:normal;text-align:center;letter-spacing:0;word-spacing:0;writing-mode:lr-tb;text-anchor:middle;fill:#fff;fill-opacity:1;stroke:#000;stroke-width:.50270832;stroke-linejoin:round;stroke-miterlimit:4;stroke-dasharray:none;stroke-opacity:1;paint-order:markers stroke fill" id="text4627" x="13" y="289.316"><tspan id="tspan4625" x="15" y="289.316" style="font-style:normal;font-variant:normal;font-weight:400;font-stretch:normal;font-size:4.93888903px;font-family:'Arial Rounded MT Bold';-inkscape-font-specification:'Arial Rounded MT Bold, Normal';font-variant-ligatures:normal;font-variant-caps:normal;font-variant-numeric:normal;font-feature-settings:normal;text-align:center;writing-mode:lr-tb;text-anchor:middle;fill:#fff;fill-opacity:1;stroke:#000;stroke-width:.50270832;stroke-linejoin:round;stroke-miterlimit:4;stroke-dasharray:none;stroke-opacity:1;paint-order:markers stroke fill">CLI</tspan></text></g></svg>